<mxfile host="app.diagrams.net" modified="2023-03-31T02:07:34.407Z" agent="Mozilla/5.0 (Windows NT 10.0; Win64; x64) AppleWebKit/537.36 (KHTML, like Gecko) Chrome/111.0.0.0 Safari/537.36 Edg/111.0.1661.54" version="21.1.0" etag="uBrPQyonZT4OiI1T62ji" type="github">
  <diagram name="Страница 1" id="8UKAUUobOX8SBbqDyoSn">
    <mxGraphModel>
      <root>
        <mxCell id="0" />
        <mxCell id="1" parent="0" />
      </root>
    </mxGraphModel>
  </diagram>
</mxfile>
